# Blender v2.92.0 OBJ File: 'pianobase.blend'
# www.blender.org
mtllib nero.mtl
o AAA_-_Neri_isolati.001_Tasti_Neri_Cube.003
v 1.837476 1.201122 -5.010037
v 1.850671 1.201122 -5.010037
v 1.850671 1.201122 -5.133623
v 1.837476 1.201122 -5.133623
v 1.832123 1.175244 -5.008743
v 1.832123 1.195769 -5.008743
v 1.832123 1.195769 -5.138976
v 1.832123 1.175244 -5.138976
v 1.856024 1.175244 -5.138976
v 1.856024 1.195769 -5.138976
v 1.856024 1.195769 -5.008743
v 1.856024 1.175244 -5.008743
vt 0.680990 0.510276
vt 0.819010 0.510276
vt 0.819010 0.739724
vt 0.680990 0.739724
vt 0.375000 0.500000
vt 0.568268 0.500000
vt 0.568268 0.750000
vt 0.375000 0.750000
vt 0.375000 0.000000
vt 0.568268 0.000000
vt 0.568268 0.250000
vt 0.375000 0.250000
vt 0.125000 0.500000
vt 0.125000 0.750000
vt 0.875000 0.500000
vt 0.875000 0.750000
vt 0.625000 0.500000
vt 0.625000 0.750000
vt 0.568268 1.000000
vt 0.375000 1.000000
vn 0.0000 1.0000 0.0000
vn -1.0000 0.0000 0.0000
vn 1.0000 0.0000 0.0000
vn 0.0000 -1.0000 0.0000
vn 0.0000 0.0000 1.0000
vn 0.7071 0.7071 0.0000
vn 0.0000 0.2350 0.9720
vn -0.7071 0.7071 0.0000
vn 0.0000 0.7071 -0.7071
vn 0.0000 0.0000 -1.0000
usemtl Material.028
s off
f 1/1/1 2/2/1 3/3/1 4/4/1
f 5/5/2 6/6/2 7/7/2 8/8/2
f 9/9/3 10/10/3 11/11/3 12/12/3
f 12/13/4 5/5/4 8/8/4 9/14/4
f 12/12/5 11/11/5 6/6/5 5/5/5
f 3/3/6 2/2/6 11/15/6 10/16/6
f 2/2/7 1/1/7 6/17/7 11/15/7
f 1/1/8 4/4/8 7/7/8 6/6/8
f 4/4/9 3/3/9 10/16/9 7/18/9
f 8/8/10 7/7/10 10/19/10 9/20/10
